<svg width="608" height="558" fill="none" xmlns="http://www.w3.org/2000/svg"><g opacity=".7"><path d="M553.721 324.762l-.088 2.206h4.239v2.849h4.151v2.725h4.369v1.248h-.109v1.959l9.119 6.111 8.58-5.481-35.029-23.255-6.582.964-.24.035 1.38 6.482 1.129.788h4.821v2.74l3.775.11.505.014-.02.505z" fill="#1A1A1A" stroke="#AAAAAC"/><path d="M583.993 333.537l-34.931-23.261-6.93 1.01 1.376 6.577 1.122.685 4.454.121.506.013-.02.507-.088 2.205h4.369l-.021.52-.089 2.22 3.755.109.505.015-.02.505-.088 2.206h4.26l-.021.52-.089 2.22 3.863.109.504.014-.018.504-.099 2.693 9.212 6.105 8.488-5.597z" fill="#1A1A1A" stroke="#AAAAAC"/><path d="M577.844 329.392a26.593 26.593 0 00-4.26 2.095c-1.733 1.092-3.019 2.377-3.946 3.763l5.76 3.765 8.589-5.486-6.143-4.137zm-5.676 1.401l-29.453-19.535-.595.056.087.494 29.268 19.404.693-.419z" fill="#1A1A1A" stroke="#AAAAAC"/><mask id="a" fill="#fff"><path d="M607.837 345.184l.109-3.965-1.092 2.726.983 1.239z"/></mask><path d="M607.837 345.184l.109-3.965-1.092 2.726.983 1.239z" fill="#1A1A1A"/><path d="M607.837 345.184l.999.027-.075 2.746-1.708-2.152.784-.621zm.109-3.965l-.928-.372 1.927.4-.999-.028zm-1.092 2.726l-.784.622-.361-.455.216-.539.929.372zm-.017 1.211l.109-3.964 1.999.055-.109 3.964-1.999-.055zm2.037-3.565l-1.092 2.726-1.857-.744 1.093-2.726 1.856.744zm-1.237 1.732l.983 1.239-1.567 1.243-.983-1.238 1.567-1.244z" fill="#AAAAAC" mask="url(#a)"/><path d="M569.215 341.082l-.343-.389-.076 2.933c.003 3.132 1.845 6.336 5.571 8.871 3.723 2.534 8.672 3.816 13.662 3.847 4.989.03 9.968-1.191 13.748-3.606 3.775-2.473 5.589-5.646 5.602-8.765.013-3.121-1.778-6.325-5.502-8.86-3.724-2.533-8.672-3.816-13.663-3.847-4.99-.03-9.97 1.192-13.75 3.607-2.447 1.569-4.115 3.478-4.942 5.469l-.307.74zm21.298 4.108l.014-.009.014-.009c1.13-.674 2.533-1 3.916-1s2.786.326 3.916 1c1.149.686 1.776 1.67 1.759 2.745-.017 1.059-.659 2.06-1.731 2.803h0l-.01.007c-1.134.744-2.572 1.104-3.975 1.104-1.396 0-2.806-.356-3.889-1.102-1.14-.685-1.762-1.666-1.745-2.735.017-1.06.659-2.061 1.731-2.804z" fill="#1A1A1A" stroke="#AAAAAC"/><path d="M574.467 349.475l.005.003c3.723 2.533 8.672 3.816 13.663 3.847 4.99.03 9.97-1.192 13.75-3.607 3.774-2.411 5.587-5.553 5.599-8.655.013-3.105-1.777-6.31-5.502-8.845-3.723-2.534-8.672-3.816-13.662-3.847-4.991-.03-9.97 1.192-13.751 3.607-3.771 2.41-5.586 5.582-5.599 8.702-.013 3.121 1.777 6.324 5.497 8.795h0zm16.17-7.192h0l.01-.006c1.129-.674 2.532-1 3.915-1 1.384 0 2.787.326 3.916 1 1.15.686 1.776 1.67 1.759 2.744-.017 1.06-.659 2.061-1.73 2.804h0l-.011.007c-1.134.744-2.572 1.104-3.974 1.104-1.396 0-2.807-.357-3.89-1.102-1.148-.691-1.761-1.705-1.744-2.782.017-1.073.657-2.081 1.749-2.769z" fill="#1A1A1A" stroke="#AAAAAC"/><path d="M591.728 353.11h0l.01-.001c1.479-.119 2.966-.479 4.498-.851 2.032-.608 3.95-1.455 5.651-2.54 3.773-2.411 5.587-5.554 5.613-8.657.025-3.107-1.739-6.311-5.408-8.844-3.723-2.533-8.672-3.815-13.661-3.846-4.991-.03-9.97 1.192-13.751 3.607-3.771 2.41-5.586 5.582-5.599 8.702-.013 3.12 1.777 6.323 5.497 8.794 4.579 3.02 11.12 4.247 17.15 3.636zm-1.09-10.827h0l.011-.006c1.129-.674 2.532-1 3.915-1s2.787.326 3.916 1c1.149.686 1.776 1.67 1.759 2.744-.017 1.06-.659 2.061-1.731 2.804h0l-.01.007c-1.134.744-2.572 1.104-3.975 1.104-1.395 0-2.806-.356-3.889-1.102-1.148-.691-1.762-1.705-1.745-2.782.017-1.073.658-2.081 1.749-2.769z" fill="#1A1A1A" stroke="#AAAAAC"/></g><g opacity=".7" fill="#1A1A1A" stroke="#AAAAAC" stroke-width=".8"><path d="M235.472 190.364l.206.135.214-.124 7.344-4.253-2.665 8.533a2.515 2.515 0 01-1.049 1.184l-.011.007-.011.007-144.32 94.552-.004.002a5.315 5.315 0 01-2.497.781c-.878.046-1.701-.142-2.31-.573l-.005-.004-.007-.004-86.175-56.416-.037-.024-.04-.015c-.35-.132-.471-.371-.645-.765l-2.639-7.746.075.042 2.26 1.247c1.709.944 3.59 1.986 4.288 2.382l.212.12.204-.134 140.993-92.366.003-.002a5.307 5.307 0 012.498-.782c.878-.046 1.701.142 2.309.573l.006.004.006.004 81.797 53.635z"/><path d="M89.494 283.663l-.006-.004-.006-.004L1.21 225.853c-.604-.431-.817-.945-.77-1.417.05-.489.39-1.038 1.108-1.49h0l.006-.004 147.824-96.936.003-.002c.723-.455 1.661-.734 2.584-.781.928-.047 1.793.144 2.398.572l.006.005.006.004 88.278 57.806.018.012.021.011c.68.342.899.8.855 1.241-.049.48-.424 1.083-1.248 1.644l-.003.002-147.818 96.932-.003.002c-.724.455-1.661.735-2.584.781-.928.047-1.793-.143-2.398-.572z"/><path d="M94.91 283.133l147.639-96.815a6.905 6.905 0 01-.259.207L94.478 283.453l-.003.002c-.724.455-1.662.735-2.585.781-.928.047-1.793-.144-2.397-.572l-.007-.005-.006-.004-88.277-57.806-.026-.017-.028-.013a1.21 1.21 0 01-.485-.369l.078.06.011.008.012.007 88.271 57.803c.796.561 1.855.766 2.894.714 1.047-.053 2.122-.368 2.974-.905h0l.006-.004zm-39.152-18.214v1.362l-5.28-3.447a.583.583 0 01-.018-.03.225.225 0 01-.031-.069c-.001-.002-.001-.003-.001-.001v-1.362l5.33 3.481v.066zm8.582 5.562v1.362l-5.28-3.447a.47.47 0 01-.018-.03.28.28 0 01-.032-.069v-1.363l5.33 3.481v.066z"/><path d="M50.926 239.642l.011-.007.01-.007 122.959-80.452v.001l.006-.005c.385-.262.746-.377 1.088-.377.342 0 .703.115 1.089.377h0l.005.004 43.789 28.804.011.007.011.006c.43.245.43.848 0 1.092l-.011.007-.011.007-122.958 80.452h0l-.006.004c-.385.262-.746.377-1.088.377-.342 0-.703-.115-1.089-.377h0l-.006-.005-43.766-28.59c-.254-.225-.367-.506-.367-.748a.63.63 0 01.323-.57z"/><path d="M174.749 163.486l4.146 2.52L66.28 239.637l-4.72-2.008 113.189-74.143zm11.721 7.556l4.009 2.694-99.462 65.078-4.008-2.694 99.461-65.078zm7.531 4.967l4.008 2.694-117.158 76.604-3.986-2.511 117.136-76.787zm7.537 4.963l4.169 2.702-117.324 76.599-3.985-2.512 117.14-76.789zm7.706 4.969l4.008 2.694-117.159 76.604-3.985-2.511 117.136-76.787z"/><path d="M61.59 237.581l3.995 2.518-3.996 2.686-3.996-2.686 3.996-2.518zm30.643-4.758l3.846 2.685-22.763 14.835-4.145-2.519 23.061-15.001zm2.064-30.018l-.006.004-.006.005c-1.273.902-3.176.882-4.246.015l-.015-.012-.017-.011-22.595-14.899-.002-.001c-.523-.339-.737-.769-.737-1.154 0-.386.214-.816.737-1.155l.001-.001 33.093-21.645c.629-.353 1.43-.538 2.223-.538.799 0 1.548.187 2.08.531l.001.001 22.592 14.897.003.001c.522.339.737.769.737 1.154 0 .386-.215.816-.737 1.155l-.002.001-33.104 21.652z"/><path d="M66.975 186.119l-.012.007-.01.008c-.084.063-.16.123-.232.181.13-.243.358-.491.695-.721l33.09-21.643c.628-.353 1.429-.538 2.222-.538.799 0 1.549.187 2.08.531l.001.001 22.588 14.893.002.002c.32.218.541.452.674.683a2.022 2.022 0 00-.242-.164l-22.584-14.892-.011-.007-.012-.007c-.771-.437-1.717-.648-2.627-.648-.908 0-1.822.21-2.517.66l-.001.001-33.104 21.653z"/><path d="M91.775 284.588h1.053l-.195 1.327-1.761-1.075-.096-.059h-.077a.619.619 0 01-.092-.148c-.089-.181-.165-.433-.253-.73L71.443 157.201c-.076-.709.08-1.528.407-2.27.33-.747.812-1.37 1.34-1.713l.002-.001 149.406-97.933.021-.014.019-.016c.318-.27.548-.363.717-.378.158-.014.324.035.534.194l.016.012.017.01 1.663 1.016-.934.47-.258.13.043.287 18.74 125.933v.004c.075.601-.077 1.366-.403 2.06-.329.7-.802 1.256-1.302 1.499l-.023.011-.021.014-148.53 97.337-1.122.735zm-1.064.204l-.002-.002a.007.007 0 01.002.002z"/><path d="M243.882 188.302l-.002.001-149.405 97.932c-.569.369-.942.386-1.153.293-.205-.091-.429-.363-.51-1v-.009L73.896 158.791v-.004c-.075-.603.077-1.421.41-2.197.333-.781.817-1.446 1.338-1.784l.001-.001L225.05 56.874v-.001c.569-.368.943-.385 1.153-.292.205.09.429.363.509 1l.002.01 18.915 126.728c.076.709-.08 1.529-.407 2.27-.329.747-.811 1.37-1.34 1.713z"/></g><g opacity=".7" fill="#1A1A1A" stroke="#AAAAAC" stroke-width=".8"><path d="M363.895 186.122l7.344 4.254.213.123.206-.135 81.797-53.635.006-.004.006-.004c.608-.431 1.431-.619 2.309-.572a5.302 5.302 0 012.498.781l.003.002 140.993 92.367.204.134.212-.121c.699-.396 2.579-1.437 4.288-2.381l2.26-1.248.075-.041-2.639 7.746c-.174.393-.295.632-.644.764l-.041.016-.037.024-86.175 56.415-.006.004-.007.005c-.608.431-1.431.619-2.309.572a5.302 5.302 0 01-2.497-.781l-.004-.002-144.32-94.552-.011-.007-.011-.006a2.524 2.524 0 01-1.049-1.184l-2.664-8.534z"/><path d="M517.47 283.655l-.006.004-.006.004c-.605.428-1.47.619-2.398.572-.923-.046-1.86-.326-2.584-.781l-.003-.002-147.812-96.928c-.727-.553-1.075-1.154-1.125-1.65-.048-.468.16-.921.741-1.251l.011-.006.011-.007 88.277-57.806.006-.004.006-.005c.605-.428 1.47-.619 2.398-.572.923.047 1.861.326 2.585.781l.003.002 147.823 96.936.006.004c.718.452 1.058 1.001 1.107 1.49.048.472-.165.986-.768 1.416l-88.272 57.803z"/><path d="M364.663 186.524a6.177 6.177 0 01-.259-.207l147.638 96.815.007.004c.852.537 1.927.852 2.973.905 1.04.053 2.099-.153 2.894-.714l88.272-57.803.012-.007.01-.008.079-.06a1.223 1.223 0 01-.485.37l-.028.012-.026.017-88.278 57.807-.006.004-.006.004c-.604.429-1.469.619-2.398.572-.922-.046-1.86-.326-2.584-.781l-.003-.002-147.812-96.928zm186.71 78.395v-.066l5.33-3.481v1.362c0-.002 0-.001-.001.001a.3.3 0 01-.031.069l-.019.03-5.279 3.447v-1.362zm-8.586 5.562l.001-.066 5.33-3.481v1.362c0-.002 0-.001-.001.001a.296.296 0 01-.032.07l-.018.029-5.28 3.447v-1.362z"/><path d="M556.181 239.629l.011.007.011.006a.567.567 0 01.301.547c-.013.229-.151.519-.501.759l-.003.002-43.782 28.601h0l-.007.004c-.385.262-.746.377-1.088.377-.342 0-.703-.115-1.089-.377h0l-.006-.004-122.782-80.452-.011-.007-.011-.006a.623.623 0 010-1.092l.011-.007.011-.007 43.789-28.804h0l.005-.003c.386-.263.746-.378 1.089-.378.342 0 .703.115 1.088.378h0l.006.004 122.958 80.452z"/><path d="M387.224 187.994l.011-.007.011-.007 43.789-28.804h0l.005-.003c.386-.263.746-.378 1.089-.378.342 0 .703.115 1.088.378h0l.006.004 122.958 80.452.011.007.011.006c.422.239.43.825.024 1.078l-.304.114-122.256-79.939-.003-.002c-.489-.332-1.003-.514-1.535-.514-.533 0-1.047.182-1.536.514l-.003.002-43.087 28.291-.303-.114a.623.623 0 01.024-1.078z"/><path d="M545.569 237.63l-4.72 2.007L428.225 166l3.985-2.511 113.359 74.141zm-25.45-1.51l-4.008 2.694-99.461-65.078 4.008-2.694 99.461 65.078zm10.144 16.675l-3.985 2.512-117.159-76.605 4.008-2.693 117.136 76.786zm-7.707 4.967l-3.986 2.511-117.158-76.605 4.008-2.693 117.136 76.787zm-7.532 4.966l-3.985 2.511-117.159-76.605 4.008-2.693 117.136 76.787z"/><path d="M549.534 240.099l-3.996 2.686-3.996-2.686 3.996-2.518 3.996 2.518zm-11.738 7.731l-3.986 2.511-22.759-14.832 3.846-2.684 22.899 15.005zm-24.958-45.016l-.006-.005-.006-.004-33.104-21.652-.002-.001c-.523-.339-.737-.77-.737-1.155s.214-.815.737-1.154h0l.003-.001 22.592-14.897.001-.001c.531-.344 1.281-.531 2.08-.531.793 0 1.594.185 2.223.538l33.093 21.645.001.001c.523.339.737.769.737 1.154 0 .385-.214.816-.737 1.155l-.003.001-22.594 14.899h0l-.011.008a3.726 3.726 0 01-4.267 0z"/><path d="M540.175 186.134l-.01-.008-.012-.007-33.104-21.653-.001-.001c-.695-.45-1.609-.66-2.517-.66-.91 0-1.856.211-2.627.648l-.012.007-.011.007-22.585 14.892a2.096 2.096 0 00-.241.164c.133-.231.354-.465.674-.683l22.59-14.895.001-.001c.531-.344 1.281-.531 2.08-.531.793 0 1.593.185 2.222.538l33.09 21.643c.337.23.564.478.694.721a7.025 7.025 0 00-.231-.181z"/><path d="M363.944 182.976l.005-.019.002-.02 18.742-125.743.043-.286-.259-.13-.934-.471 1.663-1.016.017-.01.016-.012c.21-.16.377-.208.534-.194.169.015.399.107.717.378l.019.016.021.014 149.406 97.933.002.001c.529.342 1.011.966 1.34 1.713.327.741.484 1.561.407 2.27l-18.911 126.701a5.03 5.03 0 01-.252.73.607.607 0 01-.092.149h-.077l-.096.058-1.761 1.076-.195-1.327h1.052l-1.121-.735-148.53-97.337-.002-.001c-.538-.349-1.064-.981-1.412-1.701-.35-.724-.488-1.468-.344-2.037z"/><path d="M363.25 188.303l-.002-.001c-.529-.343-1.011-.966-1.341-1.713-.327-.741-.483-1.561-.407-2.27L380.416 57.59h0l.001-.009c.08-.637.304-.91.509-1 .211-.093.584-.076 1.153.292h.001l149.404 97.932.002.001c.521.338 1.005 1.003 1.338 1.784.332.776.484 1.595.41 2.197l-.001.004-18.915 126.728-.001.009c-.081.637-.304.909-.509 1-.211.093-.585.076-1.154-.293L363.25 188.303z"/></g><path d="M384.775 347.977v.018l.002.017c.175 1.98-1.04 4.045-3.675 5.752l-.002.002-63.04 41.323-.005.003c-2.249 1.38-5.072 2.182-7.831 2.316-2.754.134-5.401-.401-7.333-1.644l-94.65-80.892-.017-.014-.018-.012c-1.848-1.258-2.699-2.879-2.527-4.437l.004-.033-.002-.034-15.015-260.673h50.212l.1-.065 16.384-10.712c2.249-1.38 5.072-2.183 7.831-2.317 2.765-.134 5.422.405 7.355 1.658l17.546 11.372.049.03.055.017 94.577 28.124v270.201z" fill="#1A1A1A" stroke="#AAAAAC" stroke-width=".8"/><path d="M310.735 125.026l-1.155 272.406c-2.531-.042-4.966-.495-6.703-1.677l-.008-.005-109.51-70.845-.004-.003c-1.845-1.257-2.694-2.877-2.522-4.434l.002-.021V49.669h50.236l.1-.065 16.389-10.715.002-.002c2.178-1.44 5.078-2.289 7.827-2.337l45.346 88.476z" fill="#1A1A1A" stroke="#AAAAAC" stroke-width=".8"/><path d="M315.75 396.258c-3.84 1.585-8.472 1.768-11.733.234V122.269h11.733v273.989z" fill="#1A1A1A" stroke="#AAAAAC" stroke-width=".8"/><path d="M302.865 124.594h-.001l-109.517-70.85c-1.919-1.244-2.692-2.91-2.495-4.593.199-1.705 1.404-3.526 3.655-5.015 0 0 0 0 0 0l63.048-41.329h.002c2.244-1.485 5.062-2.288 7.82-2.395 2.761-.107 5.421.484 7.359 1.74h.001l109.517 70.85c1.919 1.245 2.692 2.911 2.495 4.594-.199 1.705-1.405 3.526-3.655 5.015l-63.048 41.329h-.002c-2.244 1.485-5.062 2.288-7.82 2.394-2.761.108-5.422-.484-7.359-1.74z" fill="#1A1A1A" stroke="#AAAAAC" stroke-width=".8"/><path d="M305.961 95.95l-.005-.003-72.878-47.886-.003-.002c-.88-.6-1.201-1.29-1.126-1.946.077-.681.596-1.466 1.702-2.198h.001l29.494-19.24c.995-.614 2.276-.98 3.546-1.06 1.27-.078 2.482.134 3.358.627l72.867 47.878.002.002c.88.6 1.201 1.29 1.127 1.946-.078.682-.596 1.466-1.703 2.198 0 0 0 0 0 0L312.844 95.51l-.008.005-.007.005c-.992.716-2.267 1.132-3.527 1.21-1.262.078-2.469-.185-3.341-.779z" fill="#1A1A1A" stroke="#AAAAAC" stroke-width=".8"/><path d="M266.869 44.723l.034.039.043.029 4.192 2.808a.172.172 0 01.016.03.124.124 0 01-.015.027l-3.896 2.525h-.724l-4.09-2.741a.138.138 0 01-.017-.03.124.124 0 01.015-.027l3.985-2.582a.745.745 0 01.347-.107c.084 0 .107.026.11.029zm4.287 2.912l-.001-.002.001.002zm-.001-.01l.001-.002-.001.002zm-8.745-.22l.001.002-.001-.002zm.001.009l-.001.002.001-.002zm18.532 6.493l.034.039.043.028 4.192 2.81a.169.169 0 01.016.029.126.126 0 01-.015.027l-3.896 2.525h0-.724l-4.09-2.741a.135.135 0 01-.017-.03.197.197 0 01.015-.027l3.985-2.582a.748.748 0 01.347-.107c.084 0 .107.025.11.029zm4.287 2.912v-.002.002zm0-.01v-.002.002zm-8.745-.22v.001-.002zm0 .009v.002-.002zm18.536 6.495l.034.038.043.03 4.192 2.808a.12.12 0 01.016.03.128.128 0 01-.015.027l-3.915 2.538c-.051.009-.097.02-.129.028l-.007.001-.027.007a1.959 1.959 0 01-.173.038.428.428 0 01-.282-.03l-4.177-2.798c-.01-.014-.014-.024-.017-.03a.147.147 0 01.016-.027l3.984-2.582a.748.748 0 01.347-.107c.084 0 .107.026.11.029zm4.287 2.912v-.002.002zm0-.01v-.002.002zm-8.745-.22v.001-.001zm0 .009v.002-.002zm18.553 12.086l-.035-.04-.043-.028-4.191-2.81a.138.138 0 01-.017-.029.191.191 0 01.015-.027l3.985-2.582a.748.748 0 01.347-.107c.084 0 .107.026.11.029l.034.039.043.029 4.192 2.808a.12.12 0 01.016.03.126.126 0 01-.015.027l-3.984 2.582a.748.748 0 01-.348.107c-.083 0-.106-.025-.109-.028zm-4.287-2.912v.002-.002zm0 .009v.002-.002zm8.745.22v-.001.002zm0-.009v-.002.002zm17.255 74.141l.001-.001 41.452-26.895.003-.002c.529-.35 1.007-.493 1.415-.491.404.003.77.148 1.087.429.65.576 1.119 1.751 1.119 3.446v16.838c0 1.681-.465 3.538-1.216 5.162-.754 1.63-1.774 2.978-2.845 3.687l-.002.001-41.441 26.889c-1.046.589-1.912.501-2.522-.017-.644-.548-1.112-1.666-1.112-3.359v-16.838c0-1.681.465-3.537 1.216-5.162.754-1.629 1.773-2.978 2.845-3.687z" fill="#1A1A1A" stroke="#AAAAAC" stroke-width=".8"/><path d="M375.741 125.15c0-.808-.152-1.563-.384-2.209l.04.073c.318.601.508 1.51.508 2.792v16.838c0 1.682-.465 3.538-1.217 5.162-.753 1.63-1.773 2.978-2.844 3.688l-.002.001-41.441 26.888c-.472.266-.92.399-1.318.409.25-.098.499-.228.758-.375l.011-.006.01-.006 41.454-26.897.003-.002c1.242-.822 2.343-2.316 3.131-4.02.792-1.71 1.291-3.681 1.291-5.498V125.15z" fill="#1A1A1A" stroke="#AAAAAC" stroke-width=".8"/><path d="M346.769 157.621l-3.804 2.372a.538.538 0 01-.195.038c-.032-.002-.04-.009-.049-.017-.043-.042-.144-.218-.144-.752v-4.592c0-.257.078-.581.226-.895.146-.307.346-.573.566-.744l3.804-2.373c.211-.073.268-.026.271-.024h.001c.022.019.116.131.116.537v4.811c0 .256-.077.581-.226.894-.146.307-.346.574-.566.745zm12.727-8.31l-3.804 2.373c-.211.073-.268.026-.271.023h-.001c-.022-.018-.116-.13-.116-.536v-4.592c0-.257.077-.581.226-.895.146-.307.346-.573.566-.744l3.804-2.373c.21-.073.268-.026.271-.024h0c.023.019.117.131.117.537v4.592c0 .257-.078.581-.226.895a2.084 2.084 0 01-.566.744z" fill="#1A1A1A" stroke="#CC2B24" stroke-width=".8"/><path d="M330.392 299.971l-.003.002c-.529.35-1.007.493-1.416.491a1.625 1.625 0 01-1.087-.429c-.649-.576-1.118-1.751-1.118-3.446v-16.838c0-1.681.465-3.538 1.216-5.162.754-1.63 1.773-2.978 2.845-3.687l.001-.001 41.452-26.895.003-.002c.529-.35 1.007-.494 1.415-.491.404.003.77.148 1.087.429.65.575 1.119 1.751 1.119 3.445v16.838c0 1.682-.465 3.538-1.216 5.163-.754 1.629-1.774 2.978-2.845 3.687l-.002.001-41.451 26.895z" fill="#1A1A1A" stroke="#AAAAAC" stroke-width=".8"/><path d="M375.741 246.733c0-.711-.118-1.382-.304-1.973.296.63.468 1.515.468 2.629v16.838c0 1.681-.465 3.537-1.217 5.162-.753 1.629-1.773 2.978-2.844 3.687l-.002.001-41.441 26.888c-.472.266-.92.4-1.318.41.25-.099.499-.229.758-.375l.011-.006.01-.007 41.454-26.897.003-.002c1.242-.821 2.343-2.315 3.131-4.019.792-1.711 1.291-3.681 1.291-5.499v-16.837z" fill="#1A1A1A" stroke="#AAAAAC" stroke-width=".8"/><path d="M346.769 279.203l-3.804 2.373c-.21.073-.268.027-.271.024h0c-.023-.018-.117-.131-.117-.537v-4.592c0-.257.078-.581.226-.894.146-.308.346-.574.566-.745l3.804-2.373c.211-.072.268-.026.271-.023h.001c.022.018.116.13.116.536v4.593c0 .256-.077.58-.226.894a2.084 2.084 0 01-.566.744zm12.727-8.309l-3.804 2.373c-.211.073-.268.026-.272.023h0c-.022-.018-.116-.13-.116-.536v-4.592c0-.257.077-.581.226-.895.146-.307.346-.573.566-.744l3.804-2.373c.21-.073.268-.026.271-.024h0c.023.019.117.131.117.537v4.592c0 .257-.078.581-.226.894a2.079 2.079 0 01-.566.745z" fill="#1A1A1A" stroke="#CC2B24" stroke-width=".8"/><path d="M330.392 360.762l-.003.002c-.529.35-1.007.493-1.416.491a1.625 1.625 0 01-1.087-.429c-.649-.576-1.118-1.751-1.118-3.446v-16.838c0-1.681.465-3.538 1.216-5.162.754-1.63 1.773-2.978 2.845-3.687l.001-.001 41.452-26.895.003-.002c.529-.35 1.007-.493 1.415-.491.404.003.77.148 1.087.429.65.576 1.119 1.751 1.119 3.446v16.838c0 1.681-.465 3.538-1.216 5.162-.754 1.63-1.774 2.978-2.845 3.687l-.002.001-41.451 26.895z" fill="#1A1A1A" stroke="#AAAAAC" stroke-width=".8"/><path d="M375.741 307.524c0-.711-.118-1.381-.304-1.972.296.63.468 1.514.468 2.628v16.838c0 1.682-.465 3.538-1.217 5.162-.753 1.63-1.773 2.978-2.844 3.688l-.002.001-41.441 26.888c-.472.266-.92.399-1.318.409.25-.098.499-.228.758-.375l.011-.006.01-.006 41.454-26.897.003-.002c1.242-.822 2.343-2.316 3.131-4.02.792-1.71 1.291-3.681 1.291-5.498v-16.838z" fill="#1A1A1A" stroke="#AAAAAC" stroke-width=".8"/><path d="M342.929 342.39l-.015.01-.014.01c-.102.078-.16.089-.175.091l-.004-.004a.437.437 0 01-.09-.186 1.654 1.654 0 01-.054-.456v-4.593c0-.256.078-.58.226-.894.146-.307.346-.574.566-.744l3.804-2.373c.211-.073.268-.027.271-.024h.001c.022.018.116.131.116.537v4.592c0 .257-.077.581-.226.894a2.079 2.079 0 01-.566.745l-3.84 2.395zm16.567-10.705l-3.804 2.373c-.211.073-.268.026-.271.023h-.001c-.022-.018-.116-.13-.116-.536v-4.592c0-.257.077-.581.226-.895.146-.307.346-.573.566-.744l3.804-2.373c.21-.073.268-.026.271-.024v.001c.023.018.117.13.117.536v4.592c0 .257-.078.581-.226.895a2.084 2.084 0 01-.566.744zm-29.104-92.505l-.003.002c-.529.35-1.007.493-1.416.49a1.62 1.62 0 01-1.087-.429c-.649-.575-1.118-1.751-1.118-3.445V218.96c0-1.682.465-3.538 1.216-5.162.754-1.63 1.773-2.978 2.845-3.688l.001-.001 41.452-26.895.003-.002c.529-.35 1.007-.493 1.415-.49.404.003.77.147 1.087.429.65.575 1.119 1.751 1.119 3.445v16.838c0 1.682-.465 3.538-1.216 5.162-.754 1.63-1.774 2.978-2.845 3.688l-.002.001-41.451 26.895z" fill="#1A1A1A" stroke="#AAAAAC" stroke-width=".8"/><path d="M375.741 185.942c0-.711-.118-1.382-.304-1.973.296.63.468 1.515.468 2.629v16.838c0 1.681-.465 3.538-1.217 5.162-.753 1.629-1.773 2.978-2.844 3.687l-.002.001-41.441 26.889c-.472.265-.92.399-1.318.409a6.11 6.11 0 00.758-.375l.011-.006.01-.007 41.454-26.897.003-.002c1.242-.821 2.343-2.315 3.131-4.019.792-1.711 1.291-3.681 1.291-5.498v-16.838z" fill="#1A1A1A" stroke="#AAAAAC" stroke-width=".8"/><path d="M346.769 218.412l-3.804 2.373c-.21.073-.268.026-.271.023h0c-.023-.018-.117-.13-.117-.536v-4.592c0-.257.078-.581.226-.895.146-.307.346-.573.566-.744l3.804-2.373c.211-.073.268-.026.271-.024h.001c.022.019.116.131.116.537v4.592c0 .257-.077.581-.226.895a2.084 2.084 0 01-.566.744zm12.727-8.31l-3.804 2.373a.542.542 0 01-.196.038c-.031-.002-.04-.009-.049-.017-.042-.042-.143-.219-.143-.752v-4.592c0-.257.077-.581.226-.895.146-.307.346-.573.566-.744l3.804-2.373c.21-.073.268-.026.271-.024h0c.023.019.117.131.117.537v4.811c0 .256-.078.58-.226.894-.146.307-.346.574-.566.744zM199.138 98.355h0l-.009-.006c-.965-.596-1.886-1.827-2.57-3.325-.68-1.489-1.097-3.181-1.097-4.644V69.606c0-1.592.425-2.651.994-3.141.275-.237.592-.35.947-.334.363.016.796.168 1.281.519l.008.005.007.005 95.635 62.759v.001l.009.005c.964.597 1.886 1.827 2.57 3.325.68 1.489 1.097 3.182 1.097 4.645v20.799c.093 1.469-.285 2.47-.831 2.956-.507.453-1.267.548-2.218-.039l-95.823-62.756z" fill="#1A1A1A" stroke="#AAAAAC" stroke-width=".8"/><path d="M201.839 94.857l-.011-.007-.011-.006c-.471-.267-.907-.833-1.227-1.586a6.405 6.405 0 01-.499-2.44V75.292c0-.819.228-1.277.459-1.469.193-.16.474-.202.844.05h0l.007.005 90.236 59.042.01.007.011.006c.471.267.907.833 1.228 1.585.316.744.498 1.62.498 2.44v15.551l.003.025c.086.686-.097 1.138-.33 1.349-.206.187-.537.263-.993.009l-90.225-59.035z" fill="#1A1A1A" stroke="#AAAAAC" stroke-width=".8"/><path d="M220.739 99.234h0l-.008-.005-13.492-8.745c-.397-.271-.839-.853-1.186-1.587-.344-.728-.564-1.544-.564-2.235 0-.725.187-1.182.396-1.368a.403.403 0 01.314-.108c.134.01.327.076.577.265l.011.009.012.007 13.493 8.745c.397.271.839.853 1.186 1.587.344.728.564 1.544.564 2.234 0 .567-.209.989-.458 1.196a.636.636 0 01-.38.158.761.761 0 01-.465-.153zm10.17 2.666c.403.791.598 1.594.605 2.24.006.667-.182 1.049-.412 1.199-.23.151-.616.145-1.122-.195-.49-.329-1.005-.923-1.408-1.714-.402-.79-.598-1.593-.604-2.239-.007-.667.182-1.049.412-1.2.229-.15.615-.144 1.122.196.49.329 1.005.923 1.407 1.713zm8.488 7.287c0 .695-.219 1.09-.458 1.26-.218.154-.566.199-1.043-.064-.506-.39-.993-1.036-1.355-1.781-.367-.754-.587-1.568-.587-2.258 0-.695.219-1.089.459-1.259.218-.155.566-.2 1.043.063.506.391.992 1.036 1.355 1.781.366.754.586 1.569.586 2.258zm7.711 5.029c0 .695-.218 1.09-.458 1.259-.218.155-.566.2-1.043-.063-.506-.39-.993-1.036-1.355-1.781-.367-.754-.586-1.569-.586-2.258 0-.695.218-1.09.458-1.26.218-.154.566-.199 1.043.064.506.39.992 1.036 1.355 1.781.367.754.586 1.569.586 2.258zm7.903 5.248c0 .695-.219 1.09-.458 1.259-.219.155-.567.2-1.043-.063-.507-.39-.993-1.036-1.355-1.781-.367-.754-.587-1.569-.587-2.258 0-.695.219-1.09.458-1.26.218-.154.566-.199 1.043.064 1.051.807 1.942 2.428 1.942 4.039zm33.42 25.702l-.01-.007-.011-.007-4.627-3.062-.012-.007-.012-.007c-.285-.162-.525-.461-.695-.871a3.724 3.724 0 01-.259-1.405v-5.467c0-.496.134-.739.226-.821.038-.034.068-.041.096-.04.033.001.099.015.194.087l.01.007.01.007 4.628 3.062.011.007.012.007c.285.162.525.461.696.871.169.409.258.902.258 1.405v5.467c0 .496-.134.739-.226.821-.038.033-.068.041-.096.04-.033-.001-.099-.015-.193-.087zm-89.101-10.293h0l-.009-.006c-.965-.596-1.886-1.827-2.57-3.324-.68-1.489-1.097-3.182-1.097-4.645v-20.774c0-1.592.424-2.651.994-3.141.275-.237.592-.35.947-.334.363.016.796.169 1.281.519l.008.005.007.005 95.635 62.76h0l.009.005c.964.597 1.886 1.828 2.57 3.325.68 1.489 1.096 3.182 1.096 4.645v20.774c0 1.472-.419 2.483-.993 2.977a1.493 1.493 0 01-.971.375c-.367.005-.798-.114-1.277-.409l-95.63-62.757z" fill="#1A1A1A" stroke="#AAAAAC" stroke-width=".8"/><path d="M292.094 190.214l-.011-.008-.011-.007-90.236-59.042-.011-.007-.011-.006c-.471-.267-.907-.833-1.227-1.586a6.403 6.403 0 01-.499-2.44v-15.307c0-.819.228-1.277.459-1.469.193-.161.474-.202.845.05h0l.006.004 90.236 59.042.01.007.011.006c.472.268.907.833 1.228 1.586.316.744.498 1.62.498 2.44v15.551l.003.025c.087.693-.101 1.13-.317 1.31-.173.144-.49.216-.973-.149z" fill="#1A1A1A" stroke="#AAAAAC" stroke-width=".8"/><path d="M220.736 135.752h0l-.008-.005-13.492-8.745c-.397-.271-.839-.853-1.186-1.587-.344-.728-.564-1.544-.564-2.234 0-.726.187-1.183.396-1.369a.404.404 0 01.314-.108c.134.01.327.076.577.265l.011.009.013.008 13.492 8.744c.397.272.839.853 1.186 1.587.344.729.564 1.544.564 2.235 0 .567-.209.988-.458 1.196a.638.638 0 01-.38.157.765.765 0 01-.465-.153z" fill="#1A1A1A" stroke="#AAAAAC" stroke-width=".8"/><path d="M231.679 140.675c0 .695-.219 1.09-.458 1.259-.219.155-.567.2-1.043-.063-.507-.39-.993-1.036-1.355-1.781-.367-.754-.587-1.569-.587-2.258 0-.695.219-1.09.458-1.259.216-.153.559-.199 1.028.055.908.84 1.957 2.47 1.957 4.047zm7.715 5.031c0 .695-.219 1.089-.459 1.259-.218.155-.566.199-1.043-.063-.506-.391-.992-1.037-1.355-1.781-.366-.754-.586-1.569-.586-2.259 0-.694.219-1.089.458-1.259.218-.155.566-.199 1.043.064.506.39.993 1.036 1.355 1.781.367.754.587 1.568.587 2.258zm7.713 5.028c0 .695-.218 1.09-.458 1.26-.218.154-.566.199-1.043-.064-.506-.39-.992-1.036-1.355-1.781-.367-.754-.586-1.568-.586-2.258 0-.695.219-1.089.458-1.259.218-.155.566-.199 1.043.063.506.391.993 1.036 1.355 1.781.367.754.586 1.569.586 2.258zm7.147 3.005c.403.791.599 1.593.605 2.239.007.667-.182 1.05-.412 1.2-.23.15-.616.145-1.122-.195-.49-.33-1.005-.923-1.408-1.714-.402-.791-.598-1.593-.604-2.239-.007-.667.182-1.05.412-1.2.229-.15.615-.145 1.122.195.49.33 1.005.923 1.407 1.714z" fill="#1A1A1A" stroke="#CC2B24" stroke-width=".8"/><path d="M288.428 181.685l-.01-.007-.01-.007-4.628-3.062-.011-.007-.012-.007c-.286-.162-.525-.461-.696-.872a3.738 3.738 0 01-.258-1.404v-5.467c0-.496.134-.74.226-.821.038-.034.068-.041.096-.04.033.001.099.015.193.086l.01.008.011.007 4.627 3.061.012.008.012.007c.285.162.525.461.695.871.17.409.259.902.259 1.405v5.467c0 .496-.134.739-.226.821-.039.033-.069.04-.096.04-.033-.001-.099-.015-.194-.087zm-89.098-10.293h0l-.009-.006c-.965-.597-1.886-1.827-2.57-3.325-.68-1.489-1.097-3.182-1.097-4.644v-20.774c0-1.592.424-2.651.994-3.141.275-.237.592-.35.947-.334.363.016.796.168 1.281.519l.008.005.007.005 95.635 62.759h0l.009.006c.964.597 1.886 1.827 2.57 3.325.68 1.489 1.096 3.182 1.096 4.645v20.774c0 1.472-.419 2.482-.993 2.976-.281.243-.608.37-.971.375-.367.006-.798-.113-1.277-.409l-95.63-62.756z" fill="#1A1A1A" stroke="#AAAAAC" stroke-width=".8"/><path d="M292.094 226.733l-.011-.008-.011-.008-90.236-59.042-.011-.007-.011-.006c-.471-.267-.907-.833-1.227-1.585a6.407 6.407 0 01-.499-2.44v-15.526c0-.82.228-1.278.459-1.469.193-.161.474-.202.845.05h0l.006.004 90.236 59.042.01.007.011.006c.472.267.907.833 1.228 1.586.316.743.498 1.619.498 2.44v15.548l.002.021c.091.819-.105 1.316-.329 1.519a.477.477 0 01-.363.129c-.15-.008-.352-.076-.597-.261z" fill="#1A1A1A" stroke="#AAAAAC" stroke-width=".8"/><path d="M220.736 172.27h0l-.007-.005-13.493-8.744c-.397-.272-.839-.853-1.186-1.587-.344-.729-.564-1.544-.564-2.235 0-.725.187-1.182.396-1.369a.404.404 0 01.314-.108c.134.01.327.076.577.266l.011.008.013.008 13.492 8.745c.397.271.839.853 1.186 1.587.344.728.564 1.544.564 2.234 0 .567-.209.989-.458 1.196a.64.64 0 01-.38.158.767.767 0 01-.465-.154zm10.943 4.924c0 .695-.219 1.089-.458 1.259-.219.155-.567.199-1.043-.064-.507-.39-.993-1.036-1.355-1.78-.367-.754-.587-1.569-.587-2.259 0-.694.219-1.089.458-1.259.216-.153.559-.198 1.028.055.908.841 1.957 2.47 1.957 4.048zm7.715 5.03c0 .695-.219 1.09-.459 1.26-.218.154-.566.199-1.043-.064-.506-.39-.992-1.036-1.355-1.781-.366-.754-.586-1.569-.586-2.258 0-.695.219-1.09.458-1.259.218-.155.566-.2 1.043.063.506.39.993 1.036 1.355 1.781.367.754.587 1.569.587 2.258zm7.713 5.029c0 .695-.218 1.09-.458 1.259-.218.155-.566.2-1.043-.063-.506-.39-.992-1.036-1.355-1.781-.367-.754-.586-1.569-.586-2.258 0-.695.219-1.09.458-1.26.218-.154.566-.199 1.043.064.506.39.993 1.036 1.355 1.781.367.754.586 1.569.586 2.258zm7.903 5.248c0 .695-.219 1.09-.458 1.259-.218.155-.566.2-1.043-.063-.506-.39-.993-1.036-1.355-1.781-.367-.754-.587-1.569-.587-2.258 0-.695.219-1.09.459-1.259.221-.158.577-.201 1.065.076.482.273.966.851 1.333 1.604.362.746.586 1.616.586 2.422zm33.418 25.703l-.01-.008-.01-.007-4.628-3.061-.011-.008-.012-.007c-.286-.162-.525-.461-.696-.871a3.743 3.743 0 01-.258-1.405v-5.467c0-.496.134-.739.226-.82.038-.034.068-.041.096-.041.033.001.099.015.193.087l.01.008.011.007 4.627 3.061.012.008.012.006c.285.162.525.461.695.872.17.408.259.902.259 1.404v5.467c0 .497-.134.74-.226.821-.039.034-.069.041-.096.04-.033-.001-.099-.015-.194-.086zm-89.098-10.293v-.001l-.009-.005c-.965-.597-1.886-1.827-2.57-3.325-.68-1.489-1.097-3.182-1.097-4.645v-20.774c0-1.592.424-2.651.994-3.141.275-.236.592-.349.947-.334.363.017.796.169 1.281.52l.008.005.007.005 95.635 62.759h0l.009.006c.964.596 1.886 1.827 2.57 3.325.68 1.489 1.096 3.181 1.096 4.644v20.774c0 1.473-.419 2.483-.993 2.977-.281.242-.608.37-.971.375-.367.005-.798-.113-1.277-.409l-95.63-62.756z" fill="#1A1A1A" stroke="#AAAAAC" stroke-width=".8"/><path d="M292.094 263.252l-.011-.008-.011-.008-90.236-59.042-.011-.007-.011-.006c-.471-.267-.907-.833-1.227-1.585a6.408 6.408 0 01-.499-2.441V184.63c0-.82.228-1.278.459-1.47.193-.16.474-.202.845.051h0l.006.004 90.236 59.042.01.007.011.006c.472.267.907.833 1.228 1.586.316.743.498 1.619.498 2.44v15.548l.002.021c.091.819-.105 1.316-.329 1.519a.477.477 0 01-.363.129c-.15-.008-.352-.076-.597-.261z" fill="#1A1A1A" stroke="#AAAAAC" stroke-width=".8"/><path d="M220.78 208.605l-.024-.022-.028-.018-13.492-8.744c-.397-.272-.839-.853-1.186-1.587-.344-.729-.564-1.544-.564-2.235 0-.725.187-1.182.396-1.368a.405.405 0 01.314-.109c.134.01.327.077.577.266l.011.008.013.008 13.492 8.745c.397.271.839.853 1.186 1.587.344.728.564 1.544.564 2.234 0 .7-.222 1.164-.458 1.36a.45.45 0 01-.332.117c-.116-.009-.276-.067-.469-.242z" fill="#1A1A1A" stroke="#AAAAAC" stroke-width=".8"/><path d="M231.679 213.713c0 .694-.219 1.089-.458 1.259-.219.154-.567.199-1.043-.064-.507-.39-.993-1.036-1.355-1.781-.367-.754-.587-1.568-.587-2.258 0-.695.219-1.089.458-1.259.22-.156.571-.2 1.052.068.404.281.89.869 1.278 1.621.39.754.655 1.62.655 2.414zm6.937 2.818c.403.791.599 1.593.605 2.239.007.667-.182 1.05-.412 1.2-.229.15-.616.145-1.122-.195-.49-.33-1.005-.923-1.408-1.714-.402-.791-.598-1.593-.604-2.239-.007-.667.182-1.05.412-1.2.229-.15.615-.145 1.122.195.49.33 1.005.923 1.407 1.714zm8.491 7.241c0 .694-.218 1.089-.458 1.259-.218.154-.566.199-1.043-.064-.506-.39-.992-1.036-1.355-1.781-.367-.754-.586-1.568-.586-2.258 0-.695.218-1.089.458-1.259.218-.155.566-.199 1.043.064.506.39.993 1.036 1.355 1.78.367.755.586 1.569.586 2.259zm7.903 5.248c0 .695-.219 1.089-.458 1.259-.218.155-.566.199-1.043-.064-.506-.39-.993-1.036-1.355-1.78-.367-.755-.587-1.569-.587-2.259 0-.694.219-1.089.459-1.259.221-.157.577-.201 1.065.076.482.274.966.851 1.333 1.604.362.746.586 1.616.586 2.423z" fill="#1A1A1A" stroke="#CC2B24" stroke-width=".8"/><path d="M288.428 254.722l-.01-.007-.01-.007-4.628-3.062-.011-.007-.012-.007c-.286-.162-.525-.461-.696-.871a3.743 3.743 0 01-.258-1.405v-5.467c0-.496.134-.739.226-.821a.137.137 0 01.096-.04c.033.001.099.015.193.087l.01.007.011.007 4.627 3.062.012.007.012.007c.285.162.525.461.695.872.17.408.259.901.259 1.404v5.467c0 .496-.134.74-.226.821-.039.034-.069.041-.096.04-.033-.001-.099-.015-.194-.087zm6.551 52.258l-.007-.005-.007-.005-95.635-62.76h0l-.009-.005c-.965-.597-1.886-1.828-2.57-3.325-.68-1.489-1.097-3.182-1.097-4.645v-20.774c0-1.592.424-2.651.994-3.141.275-.237.592-.35.947-.334.363.016.796.169 1.281.519l.008.006.007.005 95.635 62.759h0l.009.006c.964.596 1.886 1.827 2.57 3.324.68 1.49 1.096 3.182 1.096 4.645v20.774c0 1.592-.424 2.651-.993 3.141-.275.237-.592.35-.948.334-.362-.016-.795-.169-1.281-.519z" fill="#1A1A1A" stroke="#AAAAAC" stroke-width=".8"/><path d="M292.094 299.77l-.011-.008-.011-.007-90.236-59.042-.011-.007-.011-.007c-.471-.267-.907-.833-1.227-1.585a6.407 6.407 0 01-.499-2.44v-15.526c0-.819.228-1.278.459-1.469.193-.161.474-.202.845.05h0l.006.004 90.236 59.042.01.007.011.006c.472.268.907.833 1.228 1.586.316.744.498 1.62.498 2.44v15.548l.002.022c.091.818-.105 1.316-.329 1.518a.478.478 0 01-.363.13c-.15-.009-.352-.077-.597-.262z" fill="#1A1A1A" stroke="#AAAAAC" stroke-width=".8"/><path d="M220.78 245.123l-.024-.022-.028-.017-13.492-8.745c-.397-.271-.839-.853-1.186-1.587-.344-.728-.564-1.544-.564-2.234 0-.726.187-1.183.396-1.369a.4.4 0 01.314-.108c.134.009.327.076.577.265l.011.009.013.008 13.492 8.744c.397.272.839.853 1.186 1.587.344.728.564 1.544.564 2.235 0 .699-.222 1.163-.458 1.359a.455.455 0 01-.332.118c-.116-.009-.276-.068-.469-.243zm10.899 5.109c0 .694-.219 1.089-.458 1.259-.219.155-.567.199-1.043-.064-.507-.39-.993-1.036-1.355-1.781-.367-.754-.587-1.568-.587-2.258 0-.695.219-1.089.458-1.259.22-.156.571-.2 1.052.068.404.281.89.869 1.278 1.621.39.754.655 1.62.655 2.414zm7.715 5.028c0 .695-.219 1.089-.459 1.259-.218.155-.566.2-1.043-.063-.506-.391-.992-1.036-1.355-1.781-.366-.754-.586-1.569-.586-2.258 0-.695.219-1.09.458-1.26.218-.154.566-.199 1.043.064.506.39.993 1.036 1.355 1.781.367.754.587 1.568.587 2.258zm7.713 5.03c0 .695-.218 1.089-.458 1.259-.218.155-.566.2-1.043-.063-.506-.391-.992-1.036-1.355-1.781-.367-.754-.586-1.569-.586-2.258 0-.695.218-1.09.458-1.26.218-.154.566-.199 1.043.064.506.39.993 1.036 1.355 1.781.367.754.586 1.568.586 2.258zm7.903 5.248c0 .695-.219 1.09-.458 1.26-.218.154-.566.199-1.043-.064-.506-.39-.993-1.036-1.355-1.781-.367-.754-.587-1.569-.587-2.258 0-.695.219-1.09.459-1.259.221-.157.577-.201 1.065.076.482.273.966.851 1.333 1.604.362.746.586 1.616.586 2.422zm33.418 25.703l-.01-.007-.01-.007-4.628-3.062-.011-.007-.012-.007c-.286-.162-.525-.461-.696-.871a3.743 3.743 0 01-.258-1.405v-5.467c0-.496.134-.739.226-.821a.137.137 0 01.096-.04c.033.001.099.015.193.087l.01.007.011.007 4.627 3.062.012.007.012.007c.285.162.525.461.695.872.17.408.259.901.259 1.404v5.467c0 .496-.134.74-.226.821-.039.034-.069.041-.096.04-.033-.001-.099-.015-.194-.087zm6.551 52.257l-.007-.005-.007-.005-95.635-62.759h0l-.009-.006c-.965-.597-1.886-1.827-2.57-3.325-.68-1.489-1.097-3.182-1.097-4.644V251.98c0-1.593.424-2.652.994-3.141.275-.237.592-.35.947-.335.363.017.796.169 1.281.52l.008.005.007.005 95.635 62.759h0l.009.006c.964.597 1.886 1.827 2.57 3.325.68 1.489 1.096 3.182 1.096 4.644v20.774c0 1.593-.424 2.652-.993 3.141-.275.237-.592.35-.948.335-.362-.017-.795-.169-1.281-.52z" fill="#1A1A1A" stroke="#AAAAAC" stroke-width=".8"/><path d="M201.836 277.231l-.011-.007-.011-.006c-.471-.267-.907-.833-1.227-1.586a6.4 6.4 0 01-.499-2.44v-15.526c0-.819.228-1.277.459-1.469.193-.161.474-.202.845.051h0l.006.004 90.236 59.042.01.007.011.006c.472.267.907.833 1.228 1.585.316.744.498 1.62.498 2.441v15.547l.002.022c.091.819-.106 1.251-.316 1.426-.185.153-.516.212-1.006-.062l-90.225-59.035z" fill="#1A1A1A" stroke="#AAAAAC" stroke-width=".8"/><path d="M220.78 281.642l-.024-.022-.027-.018-13.493-8.744c-.397-.272-.839-.854-1.186-1.587-.344-.729-.564-1.544-.564-2.235 0-.725.187-1.182.396-1.369a.404.404 0 01.314-.108c.134.01.327.076.577.266l.011.008.013.008 13.492 8.745c.397.271.839.853 1.186 1.587.344.728.564 1.544.564 2.234 0 .7-.222 1.164-.458 1.36a.45.45 0 01-.332.117c-.116-.009-.276-.067-.469-.242zm10.157 2.84c.403.791.598 1.594.605 2.24.006.667-.182 1.049-.412 1.199-.23.151-.616.145-1.122-.195-.49-.329-1.005-.923-1.408-1.713-.402-.791-.598-1.594-.604-2.24-.007-.667.182-1.049.411-1.2.23-.15.616-.144 1.122.196.49.329 1.006.923 1.408 1.713zm8.457 7.296c0 .695-.219 1.09-.459 1.26-.218.154-.566.199-1.043-.064-.506-.39-.992-1.036-1.355-1.781-.366-.754-.586-1.569-.586-2.258 0-.695.219-1.09.458-1.259.218-.155.566-.2 1.043.063.506.39.993 1.036 1.355 1.781.367.754.587 1.569.587 2.258zm7.713 5.03c0 .695-.218 1.09-.458 1.26-.218.154-.566.199-1.043-.064-.506-.39-.992-1.036-1.355-1.781-.367-.754-.586-1.568-.586-2.258 0-.695.219-1.089.458-1.259.218-.155.566-.199 1.043.063.506.391.993 1.036 1.355 1.781.367.754.586 1.569.586 2.258zm7.903 5.03c0 .695-.219 1.09-.458 1.259-.218.155-.566.2-1.043-.063-.506-.39-.993-1.036-1.355-1.781-.367-.754-.587-1.569-.587-2.258 0-.695.219-1.09.459-1.26.218-.154.566-.199 1.043.064.506.39.992 1.036 1.355 1.781.366.754.586 1.569.586 2.258zm33.418 25.922l-.01-.008-.01-.007-4.628-3.061-.011-.008-.012-.006c-.286-.162-.525-.461-.696-.872a3.74 3.74 0 01-.258-1.405v-5.467c0-.496.134-.739.226-.82.038-.034.068-.041.096-.04.033 0 .099.015.193.086l.01.008.011.007 4.627 3.061.012.008.012.007c.285.161.525.46.695.871.17.409.259.902.259 1.405v5.467c0 .361-.122.632-.246.757-.058.058-.103.072-.126.075-.02.002-.066.001-.144-.058zm6.551 52.257l-.007-.005-.007-.005-95.635-62.76h0l-.009-.005c-.965-.597-1.886-1.828-2.57-3.325-.68-1.489-1.097-3.182-1.097-4.645v-20.774c0-1.592.424-2.651.994-3.141.275-.236.592-.35.947-.334.363.016.796.169 1.281.52l.008.005.007.005 95.635 62.759h0l.009.006c.964.596 1.886 1.827 2.57 3.324.68 1.49 1.096 3.182 1.096 4.645v20.774c0 1.592-.424 2.651-.993 3.141-.275.237-.592.35-.948.334-.362-.016-.795-.169-1.281-.519z" fill="#1A1A1A" stroke="#AAAAAC" stroke-width=".8"/><path d="M201.836 313.75l-.011-.007-.011-.007c-.471-.267-.907-.833-1.227-1.585a6.407 6.407 0 01-.499-2.44v-15.526c0-.819.228-1.277.459-1.469.193-.161.474-.202.845.05h0l.006.004 90.236 59.042.01.007.011.006c.472.268.907.834 1.228 1.586.316.744.498 1.62.498 2.44v15.548l.002.022c.091.818-.106 1.25-.316 1.425-.185.154-.516.213-1.006-.062l-90.225-59.034z" fill="#1A1A1A" stroke="#AAAAAC" stroke-width=".8"/><path d="M220.736 318.126h0l-.007-.005-13.493-8.745c-.397-.271-.839-.853-1.186-1.587-.344-.728-.564-1.544-.564-2.234 0-.726.187-1.183.396-1.369a.404.404 0 01.314-.108c.134.01.327.076.577.265l.011.009.013.008 13.492 8.744c.397.272.839.854 1.186 1.587.344.729.564 1.544.564 2.235 0 .695-.219 1.096-.444 1.266-.197.149-.488.186-.859-.066zm9.196-.867l.006.004.007.004c1.171.715 2.187 1.96 2.912 3.393.724 1.431 1.138 3.009 1.138 4.357 0 1.465-.461 2.33-1.06 2.691-.586.353-1.473.319-2.561-.401-1.084-.717-2.104-1.968-2.855-3.405-.75-1.436-1.208-3.012-1.208-4.352 0-1.466.461-2.331 1.06-2.692.586-.353 1.472-.319 2.561.401zm20.259 18.473c0 .695-.218 1.09-.458 1.26-.218.154-.566.199-1.043-.064-.506-.39-.993-1.036-1.355-1.781-.367-.754-.586-1.568-.586-2.258 0-.695.218-1.089.458-1.259.218-.155.566-.199 1.043.064.506.39.992 1.036 1.355 1.78.367.754.586 1.569.586 2.258zm7.714 5.249c0 .695-.218 1.089-.458 1.259-.218.155-.566.199-1.043-.063-.506-.391-.993-1.037-1.355-1.781-.367-.755-.586-1.569-.586-2.259 0-.695.218-1.089.458-1.259.218-.155.566-.199 1.043.064 1.05.806 1.941 2.428 1.941 4.039zm7.903 5.029c0 .695-.218 1.09-.458 1.26-.218.154-.566.199-1.043-.064-.506-.39-.992-1.036-1.355-1.781-.367-.754-.586-1.568-.586-2.258 0-.695.218-1.089.458-1.259.218-.155.566-.2 1.043.063.506.391.993 1.036 1.355 1.781.367.754.586 1.569.586 2.258zm22.679 18.104l-.035-.04-.044-.029-4.628-3.062-.011-.007-.012-.007c-.286-.162-.525-.461-.696-.871a3.743 3.743 0 01-.258-1.405v-5.467c0-.496.134-.739.226-.821.038-.033.068-.041.096-.04.033.001.099.015.193.087l.01.007.011.007 4.627 3.062.012.007.012.007c.285.162.525.461.695.871.17.409.259.902.259 1.405v5.467c0 .5-.136.811-.246.921a.13.13 0 01-.043.033l-.003.001h0c-.001 0-.06-.007-.165-.126zm68.12 74.625h1.054l-.195 1.327-1.761-1.075-.032-.019-.035-.014c-.141-.053-.253-.162-.357-.359-.106-.2-.182-.447-.269-.743l-19.087-129.093-.003-.02-.005-.019c-.144-.571-.006-1.366.348-2.145.352-.775.879-1.449 1.408-1.792l.002-.001 152.033-99.522.021-.014.019-.016c.318-.27.548-.363.717-.378.158-.014.324.035.534.194l.006.004.007.005 1.727 1.205-.978.493-.258.131.043.286 19.09 127.919.001.004c.074.602-.078 1.421-.41 2.197-.333.781-.817 1.446-1.338 1.784l-.002.001-151.157 98.926-1.123.734z" fill="#1A1A1A" stroke="#AAAAAC" stroke-width=".8"/><path d="M339.955 306.375l.002-.001 152.032-99.521c.564-.366.943-.39 1.183-.29.242.102.496.394.659 1.026l19.088 129.1.003.02.005.019c.144.569.007 1.314-.346 2.067-.346.739-.873 1.428-1.429 1.883l-152.014 99.509c-.564.366-.944.39-1.183.29-.243-.102-.497-.394-.659-1.026l-19.088-129.092-.001-.004c-.074-.602.078-1.42.41-2.197.333-.78.817-1.446 1.338-1.783z" fill="#1A1A1A" stroke="#AAAAAC" stroke-width=".8"/><path d="M361.757 431.504l-18.085-120.701 145.866-95.463 17.912 120.7-145.693 95.464z" fill="#1A1A1A" stroke="#AAAAAC" stroke-width=".8" opacity=".51"/><path d="M597.826 406.22l.221.143.219-.146 7.21-4.81-1.991 10.39a2.526 2.526 0 01-1.04 1.164l-.011.006-.011.007-146.773 96.141-.003.002c-.723.455-1.661.735-2.584.781-.928.047-1.793-.144-2.398-.572l-.006-.004-.006-.004-87.577-57.409-.036-.024-.041-.016c-.349-.132-.47-.37-.644-.763l-2.643-7.933.101.057 2.321 1.316 4.379 2.483.212.121.205-.134 143.445-93.956.002-.002c.724-.455 1.662-.735 2.585-.781.928-.047 1.793.143 2.398.572l.007.005.007.004 82.452 53.362z" fill="#1A1A1A" stroke="#AAAAAC" stroke-width=".8"/><path d="M449.023 500.908l-.006-.005-.006-.004-89.847-58.795c-.604-.43-.817-.944-.769-1.417.049-.488.389-1.037 1.107-1.49h0l.006-.003 150.451-98.525.003-.002c.72-.453 1.7-.735 2.671-.782.978-.047 1.885.146 2.486.573l.006.004.006.004 89.854 58.8.011.007.011.006c.581.329.788.783.741 1.25-.051.496-.398 1.098-1.125 1.651l-150.439 98.517-.003.002c-.72.452-1.7.734-2.671.781-.978.047-1.885-.146-2.487-.572zm-33.492-17.875v1.362l-5.28-3.448-.018-.029c-.023-.039-.03-.063-.032-.069v-1.363l5.33 3.48v.067zm8.758 5.562v1.362l-5.33-3.481-.001-.066v-1.362l5.33 3.48.001.067z" fill="#1A1A1A" stroke="#AAAAAC" stroke-width=".8"/><path d="M508.456 356.632h0l.006-.004c.758-.516 1.606-.483 2.144-.027l.018.017.021.013 44.489 29.201.011.007.011.007a.623.623 0 010 1.092l-.011.006-.01.007-125.06 81.842h0l-.006.004c-.758.516-1.606.483-2.143.026l-.019-.016-.021-.014-44.609-29.165c-.071-.106-.132-.314-.116-.57.017-.274.117-.487.249-.593l125.046-81.833z" fill="#1A1A1A" stroke="#AAAAAC" stroke-width=".8"/><path d="M509.634 360.948l4.009 2.694-107.873 70.643-4.17-2.703 108.034-70.634zm11.737 7.744l4.17 2.702-101.208 66.267-4.17-2.703 101.208-66.266zm7.709 4.967l4.171 2.703-119.249 78.185-4.171-2.703 119.249-78.185zm7.713 5.16l4.148 2.52-119.233 78.174-4.17-2.703 119.255-77.991zm7.7 4.971l4.17 2.703-119.248 77.986-4.171-2.702 119.249-77.987zm-150.112 52.445l4.016 2.699-4.016 2.699-4.165-2.699 4.165-2.699zm16.996 4.368l4.166 2.7-9.418 6.077-4.011-2.695 9.263-6.082z" opacity=".7" fill="#1A1A1A" stroke="#AAAAAC" stroke-width=".8"/><path d="M512.92 457.471l-.007.004-.006.005c-1.273.902-3.176.882-4.246.015l-.016-.013-.017-.011-23.114-15.093c-.631-.449-.876-.936-.876-1.333 0-.386.233-.818.848-1.167l.011-.006.01-.006 33.804-22.05h.001c.531-.344 1.281-.531 2.081-.531.792 0 1.593.184 2.222.538l23.103 15.086c.631.449.876.936.876 1.333 0 .386-.233.818-.848 1.166l-.011.006-.01.007-33.805 22.05z" fill="#1A1A1A" stroke="#AAAAAC" stroke-width=".8"/><path d="M484.84 440.744c.133-.231.354-.465.673-.683l33.8-22.047h.001c.531-.344 1.281-.531 2.081-.531.793 0 1.593.184 2.222.538l23.106 15.088c.32.218.54.451.673.682a2.16 2.16 0 00-.242-.165l-23.11-15.09-.001-.001c-.695-.45-1.609-.66-2.517-.66-.91 0-1.856.21-2.627.648l-.011.006-.011.007-33.795 22.043a2.033 2.033 0 00-.242.165zM115.368 206.313l-.978-.492 1.728-1.206.006-.004.006-.005c.21-.159.377-.207.534-.194.169.015.399.108.717.378l.019.016.021.014 152.034 99.522.001.001c.529.343 1.056 1.017 1.408 1.792.354.779.492 1.574.349 2.145l-.005.019-.003.02-19.088 129.093c-.087.296-.163.543-.268.743-.104.197-.217.306-.358.36l-.035.013-.032.019-1.76 1.076-.195-1.328h1.053l-1.122-.734-151.158-98.926-.002-.001c-.52-.338-1.004-1.003-1.338-1.783-.332-.777-.484-1.595-.41-2.198l.001-.004 19.091-127.919.042-.286-.258-.131z" fill="#1A1A1A" stroke="#AAAAAC" stroke-width=".8"/><path d="M267.178 305.93l.001.001c.521.338 1.005 1.003 1.339 1.783.332.777.484 1.596.409 2.198v.004l-19.088 129.091c-.163.632-.416.925-.659 1.026-.239.1-.619.076-1.183-.289L95.972 340.227c-.632-.449-1.156-1.132-1.48-1.867-.327-.743-.431-1.493-.285-2.075l.005-.02.003-.019 19.089-129.101c.163-.631.416-.924.659-1.025.239-.1.618-.076 1.182.289h.001l152.032 99.521z" fill="#1A1A1A" stroke="#AAAAAC" stroke-width=".8"/><path d="M99.683 335.597l17.911-120.701L263.46 310.36l-18.085 120.701-145.692-95.464zM1.517 400.892l7.677 5.321.221.153.226-.148 82.12-53.803.007-.004.006-.005c.604-.428 1.47-.619 2.397-.572.923.046 1.861.326 2.585.781l.003.002 143.445 93.956.204.134.212-.12 4.379-2.484 2.321-1.316.101-.057-2.642 7.933c-.174.393-.295.632-.644.764l-.041.015-.037.025-87.577 57.607h0l-.012.008c-.604.429-1.469.619-2.398.572-.922-.046-1.86-.326-2.584-.781l-.003-.002-146.948-96.34-.01-.007-.012-.006a2.515 2.515 0 01-1.039-1.163l-1.957-10.463z" fill="#1A1A1A" stroke="#AAAAAC" stroke-width=".8"/><path d="M158.12 500.457l-.006.004-.006.004c-.602.427-1.509.62-2.487.573-.971-.047-1.951-.329-2.671-.782l-.003-.001-150.44-98.518c-.726-.553-1.073-1.154-1.124-1.65-.047-.468.16-.921.741-1.25l.011-.007.01-.007L92 340.024l.006-.004.006-.005c.601-.426 1.508-.619 2.486-.572.971.047 1.951.329 2.671.781l.003.002 150.451 98.525.006.004c.718.452 1.058 1.002 1.107 1.49.048.473-.165.987-.769 1.417l-89.847 58.795zm33.483-17.867v-.066l5.33-3.481v1.363a.296.296 0 01-.032.07l-.018.029-5.28 3.447v-1.362zm-8.757 5.563l.001-.067 5.33-3.48v1.362c0-.002 0-.002-.001.001a.298.298 0 01-.032.069.396.396 0 01-.018.03l-5.28 3.447v-1.362z" fill="#1A1A1A" stroke="#AAAAAC" stroke-width=".8"/><path d="M223.564 438.032l.01.007.011.006a.684.684 0 01.346.548c.015.226-.081.306-.115.319l-.041.015-.036.024-44.664 29.201-.021.014-.02.016c-.537.457-1.385.49-2.143-.026h0l-.006-.004-125.06-81.842-.01-.007-.011-.006a.623.623 0 010-1.092l.01-.006.011-.007 44.489-29.002.021-.014.02-.017c.537-.457 1.385-.489 2.143.026h0l.006.004 125.06 81.843z" fill="#1A1A1A" stroke="#AAAAAC" stroke-width=".8"/><g opacity=".8" fill="#1A1A1A" stroke="#AAAAAC" stroke-width=".8"><path d="M212.928 435.93l-3.869 2.869-105.22-68.839 4.17-2.702 104.919 68.672zm-17.758 3.848l-2.827 3.543-95.324-62.424 4.147-2.52 94.004 61.401zm2.134 11.624l-4.171 2.702L73.884 375.92l4.17-2.703 119.25 78.185zm-7.707 4.966l-4.17 2.703-119.232-78.174 4.147-2.52 119.255 77.991zm-7.707 4.966l-4.17 2.703L58.471 386.05l4.17-2.702 119.249 77.986z"/><path d="M216.918 438.492l-4.165 2.699-4.016-2.699 4.016-2.699 4.165 2.699zm-11.907 7.745l-4.171 2.703-9.253-6.076 4.171-2.703 9.253 6.076z"/></g><path d="M94.245 457.052l-.016-.013-.018-.011-33.804-22.05-.01-.007-.012-.006c-.614-.348-.848-.78-.848-1.167 0-.396.245-.883.876-1.333l23.103-15.085c.63-.354 1.43-.538 2.223-.538.8 0 1.55.187 2.08.531h.001l33.804 22.049.01.007.011.006c.615.349.848.78.848 1.167 0 .397-.245.884-.876 1.333l-23.114 15.093-.017.011-.016.013c-.524.425-1.303.656-2.113.656s-1.588-.231-2.112-.656z" fill="#1A1A1A" stroke="#AAAAAC" stroke-width=".8"/><path d="M121.622 439.619c.319.218.54.452.673.682a2.032 2.032 0 00-.243-.164l-33.795-22.044-.01-.007-.01-.006c-.772-.437-1.718-.648-2.628-.648-.908 0-1.822.21-2.517.661h0L59.98 433.184a2.028 2.028 0 00-.243.165c.133-.231.354-.465.673-.683l23.107-15.088c.628-.353 1.43-.538 2.222-.538.8 0 1.55.188 2.08.532h.001l33.801 22.047z" fill="#1A1A1A" stroke="#AAAAAC" stroke-width=".8"/><path d="M150.699 257.604l11.172 7.267-.222 1.513-11.172-7.267.222-1.513zm13.837 8.952l5.745 3.874-.221 1.506-5.745-3.874.221-1.506zm16.465 10.903l3.989 2.513-.223 1.519-3.989-2.514.223-1.518zm-3.332-2.191l.844.532-.215 1.458-.845-.64.216-1.35zm-4.73-3.135l2.068 1.466-.215 1.337-2.071-1.321.218-1.482zm-12.781 3.351l3.816 2.497-.222 1.512-3.816-2.497.222-1.512zm-11.034-7.151l8.37 5.477-.222 1.511-8.37-5.476.222-1.512zm13.132 37.753l8.369 5.659-.212 1.324-8.378-5.482.221-1.501zm-4.722-3.015l2.235 1.341-.224 1.527-2.235-1.342.224-1.526zm6.294-7.528l8.378 5.481-.221 1.501-8.369-5.658.212-1.324zm-4.727-3.148l2.067 1.466-.215 1.337-2.07-1.321.218-1.482zm-4.982 63.177l-16.428-10.837.222-1.51 16.427 10.837-.221 1.51zm6.132 3.971l-3.467-2.293.222-1.51 3.467 2.294-.222 1.509zm30.308 2.197l-16.434-10.651.221-1.508 16.425 10.835-.212 1.324zm6.126 4.138l-3.468-2.459.212-1.326 3.474 2.298-.218 1.487zm-54.302-23.82l-3.994-2.684.222-1.507 3.993 2.684-.221 1.507zm28.556 6.779l-3.997-2.518.221-1.499 3.99 2.682-.214 1.335zm-17.522.381l-8.37-5.477.222-1.512 8.37 5.477-.222 1.512zm4.732 3.01l-2.242-1.346.22-1.494 2.238 1.493-.216 1.347zm11.033 7.318l-8.37-5.476.222-1.512 8.37 5.477-.222 1.511zm4.733 3.011l-2.242-1.346.22-1.494 2.238 1.493-.216 1.347zm-3.853-8.357l-3.996-2.518.22-1.498 3.99 2.682-.214 1.334zm11.037 7.146l-8.549-5.488.212-1.323 8.549 5.488-.212 1.323zm4.724 3.162l-2.238-1.494.216-1.347 2.241 1.346-.219 1.495zm-37.658-24.629l-8.894-5.869.213-1.327 8.902 5.69-.221 1.506zm8.581 5.756l-6.095-4.076.222-1.508 6.095 4.077-.222 1.507zm6.653 4.19l-3.989-2.514.223-1.518 3.989 2.513-.223 1.519zm45.194 23.818l-8.72-5.86.213-1.325 8.727 5.682-.22 1.503zm8.755 5.762l-6.095-4.076.221-1.508 6.095 4.077-.221 1.507zm6.479 4.179l-3.816-2.497.222-1.511 3.817 2.497-.223 1.511zm-17.611-83.678l8.902 5.69-.222 1.506-8.893-5.868.213-1.328zm-8.76-5.755l6.273 4.091-.212 1.32-6.272-4.09.211-1.321zm-6.473-4.356l3.99 2.682-.214 1.335-3.997-2.518.221-1.499zm12.086 1.981l8.896 5.871-.222 1.51-8.896-5.871.222-1.51zm-8.763-5.584l6.273 3.913-.221 1.507-6.266-4.086.214-1.334zm-6.476-4.342l3.99 2.681-.214 1.335-3.997-2.518.221-1.498zm-23.468 19.857l2.59 1.701-.222 1.511-2.59-1.701.222-1.511zm-5.957-3.971l3.467 2.294-.222 1.509-3.466-2.293.221-1.51zm-9.367 36.789l-8.894-5.685.222-1.516 8.895 5.685-.223 1.516zm8.587 5.746l-6.095-4.077.222-1.507 6.094 4.077-.221 1.507zm6.483 4.184l-3.824-2.502.22-1.491 3.817 2.665-.213 1.328zm-20.671-19.441l-2.592-1.547.221-1.498 2.587 1.698-.216 1.347zm6.131 3.955l-3.643-2.314.212-1.325 3.644 2.314-.213 1.325zm8.581 5.741l-6.092-4.075.213-1.329 6.1 3.902-.221 1.502zm10.589-47.703l2.587 1.699-.216 1.346-2.592-1.547.221-1.498zm-5.955-3.971l3.467 2.294-.222 1.509-3.466-2.293.221-1.51zm-8.758-5.758l6.095 4.077-.222 1.507-6.094-4.076.221-1.508zm19.787 18.457l6.099 3.902-.22 1.501-6.092-4.074.213-1.329zm-11.386-6.951l8.552 5.49-.222 1.504-8.543-5.667.213-1.327zm-4.721-3.162l2.238 1.493-.216 1.347-2.242-1.346.22-1.494zm-4.383-2.96l2.071 1.467-.22 1.496-2.07-1.468.219-1.495zm.529 30.168l8.371 5.477-.222 1.511-8.371-5.477.222-1.511zm-4.732-3.172l2.242 1.495-.222 1.508-2.241-1.495.221-1.508zm5.425 9.512l2.42 1.524-.218 1.489-2.416-1.675.214-1.338zm11.39-4.336l2.416 1.675-.215 1.338-2.42-1.525.219-1.488zm4.556 2.97l6.968 4.669-.213 1.328-6.975-4.495.22-1.502zm9.109 5.94l3.989 2.514-.223 1.518-3.989-2.514.223-1.518zm-31.182-8.703l3.469 2.459-.213 1.326-3.474-2.298.218-1.487zm-.35 5.555l2.416 1.674-.215 1.339-2.42-1.525.219-1.488zm-6.127-3.988l3.467 2.293-.222 1.51-3.467-2.294.222-1.509zm19.263-4.802l2.242 1.346-.22 1.495-2.238-1.493.216-1.348zm-4.552-2.979l2.242 1.346-.22 1.494-2.238-1.493.216-1.347zm22.415-26.797l9.078 5.883-.221 1.504-9.069-6.061.212-1.326zm-11.205-7.337l8.544 5.667-.213 1.328-8.552-5.49.221-1.505zm-4.729-3.013l2.242 1.346-.219 1.494-2.239-1.493.216-1.347zm-4.509-2.952l2.196 1.318-.216 1.475-2.085-1.478.105-1.315zm-3.231-2.267l-.223 1.513-5.392-3.494.223-1.514 5.392 3.495z" fill="#1A1A1A" stroke="#CC2B24" stroke-width=".8"/><path d="M101.647 363.635l-4.148 2.521-4-2.52 4-2.689 4.148 2.688zm-6.635 11.134l-4.17 2.703-9.254-6.076 4.17-2.703 9.254 6.076z" fill="#1A1A1A" stroke="#AAAAAC" stroke-width=".8"/><path d="M262.657 480.29l.023.019.024.016 27.757 18.454.003.002c.491.335.979.988 1.347 1.822.365.827.586 1.776.586 2.648v8.415c0 1-.33 1.456-.585 1.6l-.013.008-.013.008-55.165 35.867-29.955-33.176 55.151-35.78.015-.01.015-.011c.146-.111.485-.159.81.118z" fill="#1A1A1A" stroke="#AAAAAC"/><path d="M207.177 516.422h0l.002.001 27.64 18.591.001.001c.492.335.982.99 1.35 1.81.365.812.584 1.726.584 2.526v8.414c0 .814-.223 1.286-.457 1.489-.187.163-.479.238-.934-.015l-27.623-18.58-.001-.001c-.493-.335-.982-.99-1.35-1.809-.366-.813-.585-1.727-.585-2.527v-8.414c0-.895.231-1.393.457-1.591a.473.473 0 01.34-.123c.138.005.332.061.576.228z" fill="#1A1A1A" stroke="#AAAAAC"/><path d="M229.556 534.88h-.001l.008.005c.315.204.623.592.871 1.092.24.484.401 1.027.457 1.502v5.4c0 .285-.051.519-.122.681-.075.17-.147.206-.153.209l-.051.019-.045.029-19.028 12.389-18.947-20.964 19-12.427c.041-.021.052-.018.054-.017 0 0 0 0 0 0 .015.002.083.016.225.123l.01.008.012.008 17.71 11.943z" fill="#1A1A1A" stroke="#CC2B24"/><path d="M192.9 544.5h0l-.008-.005c-.313-.203-.619-.587-.849-1.093a3.999 3.999 0 01-.359-1.608v-5.429c0-.561.143-.817.232-.895a.143.143 0 01.108-.037c.058.002.165.027.321.128l17.706 11.94h0l.007.005c.313.203.619.588.849 1.093a4 4 0 01.359 1.609v5.428c0 .561-.142.818-.231.895a.141.141 0 01-.109.037c-.058-.002-.164-.027-.32-.128L192.9 544.5zm15.639-11.581l-3.64-2.39 3.64-2.389 3.736 2.389-3.736 2.39zm8.97 5.699l-3.636-2.388 3.636-2.387 3.636 2.387-3.636 2.388z" fill="#1A1A1A" stroke="#CC2B24"/><path d="M278.198 522.08l.002-.1v-8.55c0-1.038-.292-2.129-.737-3.065-.44-.928-1.058-1.76-1.755-2.234l-.004-.003-28.001-18.728-.034-.023-.037-.017-.137-.06 4.63-3 .015-.01.014-.011c.147-.111.485-.159.811.118l.022.018.023.016 27.759 18.591.002.001c.498.34 1.017 1.001 1.413 1.836.394.828.64 1.773.64 2.635v8.414c0 1.001-.33 1.457-.584 1.601l-.011.006-.011.007-4.02 2.558zM66.882 317.531l-.013-.01-.014-.009-14.634-9.614h0l-.008-.005c-.429-.27-.983-.385-1.498-.385-.517 0-1.07.115-1.499.385h0l-.007.004-14.072 9.189-2.996-1.951 13.7-8.946c1.316-.841 3.064-1.276 4.837-1.276 1.773 0 3.52.435 4.836 1.275l.002.002 14.63 9.61h0l.005.003c1.306.836 1.889 1.905 1.889 2.917 0 1.014-.585 2.106-1.896 2.983l-.001.001-13.996 9.186-2.996-1.951 13.7-8.945c.443-.281.719-.715.719-1.212 0-.49-.268-.934-.688-1.251z" fill="#1A1A1A" stroke="#AAAAAC"/><path d="M59.351 326.893h0l.01.007c.684.423 1.336 1.252 1.82 2.301.48 1.041.77 2.243.77 3.354 0 1.085-.304 1.77-.629 2.166a.97.97 0 00-.122.053.71.71 0 00-.149.1L30.83 354.773l-29.203-24.96 30.45-20.091.002-.001a.816.816 0 01.516-.146c.185.013.427.092.74.305h0l.008.005 26.01 17.008z" fill="#1A1A1A" stroke="#AAAAAC"/><path d="M61.267 334.714v.001l-.007.002-.004.002a.768.768 0 00-.276.155l-30.228 19.903-3.176-2.62 33.784-22.145a7.2 7.2 0 01.519 2.625c0 .536-.068.996-.184 1.357-.118.365-.275.596-.428.72z" fill="#1A1A1A" stroke="#AAAAAC"/><path d="M3.1 337.889v-.001l-.011-.006c-.68-.421-1.333-1.268-1.82-2.33-.481-1.054-.769-2.257-.769-3.325 0-1.135.297-1.814.639-2.105.16-.136.34-.2.554-.192.222.009.51.098.854.329h0l.005.003 26.01 17.009h0l.01.007c.68.42 1.333 1.267 1.819 2.329.48 1.052.768 2.251.77 3.318-.036 1.084-.344 1.753-.694 2.051a.824.824 0 01-.555.207c-.213-.002-.483-.078-.804-.287h-.001L3.099 337.889zm398.948 38.01v-3.207l.225-.148 38.964-25.597.014-.009.014-.008c.714-.405 1.457-1.375 2.026-2.638.562-1.246.914-2.685.914-3.93v-33.887l.294-.133c.536-.243 1.232-.547 1.791-.788l.131-.057-3.22-2.114a1.658 1.658 0 00-.715-.102c-.255.022-.555.112-.928.322l-40.645 26.548c-.752.536-1.5 1.536-2.063 2.754-.562 1.216-.912 2.593-.912 3.835v34.531c0 1.357.395 2.135.854 2.49l3.256 2.138z" fill="#1A1A1A" stroke="#AAAAAC"/><path d="M445.068 349.603h0l.007-.005c.844-.532 1.589-1.521 2.125-2.737.533-1.208.836-2.589.836-3.843v-34.53c0-1.257-.356-2.121-.799-2.532a1.018 1.018 0 00-.687-.296c-.249-.005-.559.082-.919.338l-.008.005-.008.005-40.667 26.563h0l-.007.004c-.844.532-1.588 1.521-2.124 2.737-.533 1.208-.836 2.589-.836 3.843v34.289c0 1.541.321 2.446.727 2.841.185.18.396.264.65.259.268-.005.617-.111 1.047-.382l.003-.002 40.66-26.557z" fill="#1A1A1A" stroke="#AAAAAC"/><path d="M434.168 339.491l.02-.016.023-.015c.651-.422 1.292-1.19 1.771-2.106.479-.914.768-1.921.768-2.787 0-.88-.292-1.402-.599-1.604-.261-.171-.711-.218-1.354.303l-.044.036-.052.025c-.613.298-1.24.981-1.718 1.895-.474.904-.768 1.972-.768 2.968 0 .88.292 1.402.599 1.604.261.171.711.218 1.354-.303zm-8.304 5.312l.02-.016.022-.015c.652-.422 1.292-1.19 1.772-2.106.479-.914.768-1.921.768-2.786 0-.881-.292-1.403-.599-1.605-.261-.171-.711-.218-1.354.303l-.02.016-.023.015c-.651.422-1.292 1.19-1.771 2.106-.479.914-.768 1.921-.768 2.787 0 .88.292 1.402.599 1.604.261.171.711.218 1.354-.303zm-8.302 5.556l.021-.017.022-.015c.651-.422 1.292-1.189 1.772-2.106.479-.914.768-1.921.768-2.786 0-.881-.292-1.403-.599-1.605-.261-.171-.711-.218-1.354.303l-.021.016-.022.015c-.651.422-1.292 1.19-1.772 2.106-.478.914-.768 1.921-.768 2.787 0 .88.292 1.402.6 1.604.261.171.71.219 1.353-.302z" fill="#1A1A1A" stroke="#AAAAAC"/><path d="M424.112 286.932h0l-.007.005c-.844.531-1.589 1.521-2.124 2.736-.533 1.209-.836 2.589-.836 3.843v34.531c0 1.357.395 2.135.854 2.49l3.256 2.138v-3.207l.225-.148 38.964-25.597.014-.009.014-.008c.714-.405 1.457-1.375 2.026-2.638.562-1.246.914-2.685.914-3.93v-33.887l.294-.133c.536-.243 1.232-.547 1.791-.788l.131-.057-3.219-2.114a1.66 1.66 0 00-.716-.102c-.255.022-.555.112-.927.322l-40.654 26.553z" fill="#1A1A1A" stroke="#CC2B24"/><path d="M468.275 306.379h0l.007-.005c.844-.532 1.589-1.521 2.124-2.736.533-1.209.836-2.59.836-3.843v-34.531c0-1.257-.355-2.12-.798-2.532a1.025 1.025 0 00-.688-.296c-.248-.005-.558.083-.918.338l-.008.005-.008.006-40.667 26.562h0l-.007.004c-.844.532-1.589 1.522-2.125 2.737-.532 1.209-.835 2.589-.835 3.843v34.306l-.001.017c-.104 1.521.222 2.412.639 2.799.356.33.936.42 1.786-.115l.003-.002 40.66-26.557z" fill="#1A1A1A" stroke="#CC2B24"/><path d="M457.374 296.267l.021-.016.022-.015c.651-.422 1.292-1.19 1.772-2.106.479-.914.768-1.921.768-2.787 0-.88-.292-1.402-.599-1.604-.261-.171-.711-.218-1.354.303l-.045.036-.051.025c-.614.298-1.24.981-1.719 1.895-.473.905-.768 1.973-.768 2.968 0 .88.292 1.402.6 1.604.261.171.71.218 1.353-.303zm-8.304 5.313l.02-.017.023-.014c.651-.422 1.292-1.19 1.771-2.106.479-.915.768-1.922.768-2.787 0-.88-.292-1.403-.599-1.604-.261-.172-.711-.219-1.354.302l-.02.017-.023.014c-.651.422-1.292 1.19-1.772 2.107-.478.914-.768 1.921-.768 2.786 0 .88.292 1.403.6 1.605.261.171.711.218 1.354-.303zm-8.301 5.555l.021-.017.022-.014c.651-.422 1.292-1.19 1.772-2.107.478-.914.768-1.921.768-2.786 0-.88-.292-1.403-.6-1.605-.261-.171-.711-.218-1.354.303l-.032.026-.036.02c-.739.42-1.372 1.175-1.821 2.082-.449.904-.693 1.915-.693 2.796 0 .88.292 1.402.599 1.604.261.172.711.219 1.354-.302z" fill="#1A1A1A" stroke="#CC2B24"/></svg>